<?xml version="1.0" standalone="no"?>
<!DOCTYPE svg PUBLIC "-//W3C//DTD SVG 20010904//EN"
 "http://www.w3.org/TR/2001/REC-SVG-20010904/DTD/svg10.dtd">
<svg version="1.0" xmlns="http://www.w3.org/2000/svg"
 width="1280.000000pt" height="1018.000000pt" viewBox="0 0 1280.000000 1018.000000"
 preserveAspectRatio="xMidYMid meet">
<g transform="translate(0.000000,1018.000000) scale(0.100000,-0.100000)"
fill="#FFFFFF" stroke="none">
<path d="M5994 10119 c10 -61 52 -155 105 -236 46 -69 48 -75 54 -164 4 -51
20 -145 36 -208 16 -64 51 -210 76 -326 88 -396 165 -573 294 -671 l46 -36 1
-261 c0 -194 5 -287 17 -357 19 -108 22 -186 7 -195 -5 -3 -22 15 -37 40 -151
255 -298 461 -433 610 -50 55 -108 126 -128 158 -111 175 -136 208 -198 267
-37 36 -104 102 -148 147 -91 92 -130 114 -251 137 -62 12 -376 36 -475 36
-30 0 71 -57 250 -141 326 -152 485 -239 615 -337 192 -145 267 -244 423 -557
131 -263 220 -515 277 -788 14 -70 44 -179 65 -242 21 -63 44 -140 50 -172 7
-31 32 -108 57 -170 42 -108 82 -267 70 -279 -8 -9 -639 -134 -674 -134 -40 0
-41 8 -18 150 23 139 50 230 105 349 27 58 52 120 55 136 l7 30 -22 -35 c-13
-19 -49 -67 -81 -106 -77 -93 -108 -185 -144 -424 -15 -102 -25 -123 -52 -113
-17 7 -16 31 2 183 56 457 128 687 306 978 55 90 98 166 96 169 -13 13 -272
-297 -361 -432 -106 -159 -107 -163 -116 -357 -10 -201 -7 -178 -20 -178 -26
0 -33 68 -41 355 -5 165 -11 368 -15 451 -6 144 -5 155 19 230 33 104 35 111
52 266 17 154 19 272 4 223 -5 -16 -16 -91 -24 -165 -8 -78 -26 -171 -41 -220
-24 -79 -26 -104 -34 -365 -5 -178 -14 -311 -24 -364 -23 -124 -29 -123 -57 6
-28 130 -65 232 -109 306 -22 36 -53 100 -70 143 -28 70 -50 110 -50 91 0 -4
18 -62 39 -129 42 -134 124 -464 141 -568 18 -112 23 -357 11 -475 -13 -111
-23 -140 -48 -131 -8 3 -50 6 -95 7 l-80 1 6 42 c2 22 10 70 15 106 18 109 24
190 16 190 -5 0 -19 -10 -32 -21 -29 -28 -28 -29 -48 149 -17 165 -27 196 -44
136 -14 -52 -14 -72 5 -154 l16 -70 -27 -54 c-24 -50 -55 -180 -70 -299 -5
-38 -10 -47 -23 -45 -9 2 -21 -2 -27 -9 -11 -14 -325 -94 -337 -87 -12 8 -10
77 7 212 37 300 97 521 186 688 33 63 59 119 57 126 -8 24 -93 -100 -151 -222
-66 -141 -112 -271 -122 -345 -10 -79 -15 -99 -25 -89 -9 9 -46 275 -53 379
-2 28 -4 -43 -5 -157 -1 -139 -6 -208 -13 -208 -5 0 -30 43 -55 96 -47 101
-72 128 -30 31 40 -89 66 -201 91 -391 20 -149 21 -143 -22 -155 -21 -6 -41
-7 -44 -3 -4 4 -12 59 -18 122 -22 221 -73 450 -130 584 -39 90 -32 40 10 -74
l41 -113 6 -240 c4 -203 3 -239 -9 -235 -28 9 -68 132 -94 289 -37 222 -43
230 -44 54 0 -118 5 -178 24 -280 19 -101 22 -132 12 -141 -13 -12 -304 -57
-317 -49 -4 2 -10 55 -13 117 -3 62 -22 208 -43 323 -41 233 -42 251 -27 415
10 108 15 126 87 308 95 239 116 318 116 441 0 77 4 100 21 127 l21 34 -21 0
c-39 0 -258 -246 -312 -352 -21 -40 -44 -49 -52 -20 -3 9 -16 53 -28 96 l-23
80 138 270 139 271 -48 -45 c-26 -25 -94 -106 -152 -180 -58 -74 -110 -135
-116 -135 -7 0 -25 36 -40 80 l-29 80 27 85 c57 177 169 354 259 409 29 18 49
21 160 21 104 0 126 3 126 15 0 18 -34 41 -100 66 -28 11 -93 46 -143 78 -128
81 -155 89 -212 61 -31 -15 -63 -44 -101 -93 -79 -101 -101 -143 -122 -232
-10 -43 -23 -80 -29 -82 -5 -2 -41 49 -78 114 -117 204 -189 317 -193 304 -2
-6 1 -26 8 -44 6 -17 27 -111 46 -207 19 -96 69 -300 110 -454 l77 -279 -8
-176 -7 -176 -68 -150 c-37 -82 -71 -160 -75 -173 -4 -13 -13 -22 -21 -20 -8
2 -81 150 -163 329 -117 256 -165 350 -225 439 -94 140 -119 192 -168 354 -64
212 -70 207 -38 -34 23 -171 39 -223 133 -430 46 -102 73 -178 90 -255 14 -60
43 -153 65 -205 22 -52 44 -117 48 -145 4 -31 34 -105 79 -195 l72 -145 -14
-40 c-7 -22 -34 -83 -59 -136 -34 -74 -61 -161 -113 -369 -38 -149 -72 -274
-76 -278 -9 -10 -25 20 -25 49 0 15 -9 38 -20 51 -23 30 -39 95 -40 161 0 26
-4 47 -9 47 -4 0 -19 28 -31 63 -33 92 -61 142 -155 285 -116 177 -220 409
-328 737 -47 143 -102 328 -122 410 -41 171 -72 246 -138 326 -25 30 -57 73
-71 94 -34 49 -33 26 3 -77 66 -188 171 -534 171 -562 0 -22 -23 -10 -42 22
-9 15 -48 64 -86 110 -68 82 -69 85 -90 185 -42 198 -92 360 -147 476 -30 62
-55 120 -55 128 0 46 98 160 192 224 32 22 99 60 150 85 91 45 94 45 166 39
43 -3 72 -2 72 4 0 5 -21 23 -46 40 -192 127 -443 99 -607 -67 -56 -56 -60
-65 -88 -163 -32 -114 -49 -234 -49 -346 0 -40 -4 -73 -9 -73 -4 0 -35 42 -66
93 -54 85 -105 158 -128 182 -25 27 52 -183 139 -377 88 -197 105 -271 134
-579 11 -123 25 -250 32 -282 6 -34 7 -62 2 -66 -5 -5 -51 6 -103 23 l-94 31
-38 145 c-56 215 -119 388 -234 636 -104 226 -153 320 -162 310 -3 -2 7 -65
21 -138 47 -244 57 -312 66 -478 17 -308 18 -360 10 -365 -5 -3 -26 1 -47 9
-21 8 -57 20 -79 26 -25 6 -69 33 -109 65 -37 31 -76 60 -86 66 -11 5 -31 29
-45 52 -30 48 -195 267 -201 267 -2 0 -1 -20 3 -45 3 -25 3 -45 -1 -45 -4 0
-43 34 -86 75 -121 116 -265 178 -406 178 -100 -1 -158 -29 -184 -90 -10 -25
-19 -56 -19 -71 0 -34 32 -172 40 -172 8 0 20 24 53 100 42 98 98 127 223 117
81 -6 181 -53 289 -135 122 -92 133 -106 166 -221 16 -56 27 -106 23 -112 -4
-8 -39 -9 -103 -6 l-96 6 75 -14 c41 -8 87 -14 101 -14 15 -1 31 -7 37 -14 18
-21 120 -367 111 -373 -5 -3 -26 0 -46 6 -38 11 -285 40 -333 40 -24 -1 -24
-1 -5 -12 11 -7 117 -56 235 -110 118 -54 220 -105 227 -114 6 -8 28 -84 48
-167 45 -180 65 -246 111 -350 47 -108 48 -104 -36 -82 -14 4 -1 -8 28 -25 29
-18 59 -42 67 -54 16 -25 24 -127 10 -132 -13 -5 -171 204 -167 221 1 8 -6 16
-16 19 -11 4 -48 37 -83 73 -103 109 -177 170 -299 252 -127 85 -213 130 -267
138 -49 8 -40 -15 18 -46 101 -55 142 -87 199 -158 84 -104 80 -112 -30 -67
-80 32 -192 54 -278 54 -36 0 -63 -2 -60 -5 3 -3 110 -37 239 -75 190 -56 238
-74 254 -94 11 -14 56 -87 99 -163 274 -476 421 -697 587 -881 38 -42 69 -82
69 -88 0 -6 -30 -31 -67 -56 -173 -114 -321 -257 -431 -414 -35 -49 -92 -127
-127 -174 -87 -114 -125 -188 -133 -258 -4 -31 -7 -151 -6 -267 l0 -210 53
-140 c66 -176 70 -221 24 -318 -27 -56 -60 -96 -191 -230 -87 -89 -170 -182
-184 -207 -44 -75 -60 -151 -61 -279 0 -110 2 -126 51 -300 92 -327 89 -319
136 -365 54 -52 128 -89 236 -120 47 -13 121 -38 165 -56 104 -42 189 -49 316
-25 122 24 315 24 423 1 103 -23 164 -47 245 -100 142 -93 480 -417 585 -563
84 -116 139 -165 213 -189 52 -17 86 -19 347 -16 335 3 353 0 514 -79 112 -55
143 -82 427 -360 85 -83 162 -149 195 -167 129 -71 412 -145 660 -172 58 -6
132 -16 166 -21 94 -14 193 -11 296 10 115 23 186 52 319 129 248 142 282 154
567 202 250 42 258 44 367 84 52 19 90 26 146 26 41 0 125 7 185 15 332 47
661 68 959 62 224 -4 247 -6 350 -33 l110 -29 795 0 c688 -1 814 -3 939 -18
79 -9 210 -17 291 -17 232 0 379 36 505 125 33 23 105 63 159 90 87 41 111 58
183 133 46 47 100 110 120 139 33 49 37 61 41 137 6 109 -19 184 -98 305 l-59
89 15 48 c44 147 -19 311 -199 517 -33 38 -57 73 -54 81 13 33 220 32 417 -1
61 -11 154 -17 260 -17 184 1 235 10 467 85 209 68 217 73 452 321 125 132
165 193 181 278 5 27 10 208 10 402 1 194 6 374 11 400 8 37 7 51 -4 70 -8 13
-18 34 -22 48 -11 38 -84 190 -106 221 -10 15 -77 68 -147 118 -70 49 -174
130 -230 178 -57 48 -128 107 -159 130 -30 23 -85 70 -121 106 -84 80 -160
131 -236 157 -70 24 -67 22 -256 154 -96 67 -216 138 -360 212 -118 61 -298
162 -399 225 -175 108 -194 123 -362 285 -256 247 -345 309 -682 480 -103 52
-167 90 -164 97 95 229 117 301 100 318 -17 17 -65 -55 -126 -184 l-51 -109
-35 6 c-19 3 -41 12 -50 20 -13 13 -8 23 45 88 33 40 90 117 127 170 44 63 98
124 154 175 125 112 178 168 197 207 33 70 -17 90 -75 30 -18 -20 -79 -75
-134 -122 -221 -189 -303 -281 -329 -374 -16 -55 -40 -88 -53 -74 -3 3 4 48
16 99 12 50 29 135 37 187 37 234 87 394 221 709 73 174 85 208 73 216 -22 13
-75 -83 -145 -260 -26 -66 -77 -190 -115 -275 -37 -85 -77 -185 -88 -222 -30
-95 -53 -276 -51 -390 2 -98 -2 -121 -21 -102 -16 16 -97 312 -129 466 -15 76
-30 141 -34 145 -4 3 -7 -15 -7 -40 0 -65 -14 -59 -28 12 -13 70 -46 151 -62
151 -8 0 -10 -21 -7 -67 19 -282 30 -604 20 -614 -7 -7 -26 -6 -64 3 l-54 13
-6 63 c-8 85 -19 90 -19 9 0 -37 -4 -67 -8 -67 -31 0 -130 25 -143 36 -9 8
-19 10 -25 5 -9 -9 -290 32 -302 43 -3 3 0 18 7 33 l13 28 -29 -27 c-32 -31
-92 -38 -112 -14 -13 15 4 139 35 260 8 32 13 61 10 64 -13 12 -90 -188 -104
-269 -7 -44 -8 -44 -56 -50 -31 -3 -53 -1 -60 7 -7 6 -23 74 -37 150 -22 129
-24 135 -27 82 -2 -32 5 -93 17 -140 27 -114 29 -112 -134 -105 -314 15 -440
27 -451 42 -7 10 -10 41 -7 83 7 88 72 229 151 327 134 164 163 211 242 385
37 81 74 148 99 177 25 27 75 116 126 221 107 218 180 326 320 471 240 249
572 475 855 584 36 13 98 37 138 52 152 57 45 60 -186 5 -110 -26 -138 -30
-164 -21 -38 13 -62 14 -30 0 13 -5 22 -13 20 -18 -5 -14 -337 -180 -343 -171
-16 25 87 204 126 218 5 2 9 11 9 19 0 9 31 75 69 147 137 259 229 491 252
631 7 44 21 92 31 107 10 15 27 52 38 83 10 30 39 81 63 113 62 81 72 101 52
108 -23 9 -64 -22 -93 -72 -96 -161 -100 -166 -133 -159 -42 9 -150 -27 -219
-73 -80 -54 -186 -209 -241 -353 -26 -66 -56 -125 -76 -149 -19 -22 -45 -67
-58 -101 -24 -60 -117 -199 -159 -237 -18 -17 -42 -20 -168 -25 -92 -4 -148
-3 -148 3 0 5 28 48 63 94 34 47 93 145 131 218 120 232 149 269 458 580 292
295 330 326 443 361 28 9 61 17 74 19 14 2 27 9 29 17 9 28 -109 6 -234 -44
-227 -91 -347 -163 -489 -298 -120 -113 -329 -368 -386 -470 -25 -45 -80 -129
-123 -187 -45 -60 -99 -150 -127 -210 -28 -58 -53 -112 -58 -120 -8 -17 -86
-58 -183 -95 -86 -34 -137 -71 -193 -142 -94 -119 -167 -313 -210 -558 -9 -49
-33 -144 -53 -210 l-37 -120 3 -315 c2 -238 -1 -341 -13 -420 -13 -94 -19
-154 -40 -382 -5 -48 -11 -68 -20 -68 -18 0 -23 35 -29 215 -3 83 -13 202 -22
265 -11 71 -18 190 -19 310 -2 207 -7 238 -75 511 -52 206 -60 275 -59 519 0
124 0 234 -1 245 -1 11 4 39 11 62 11 36 10 53 -4 114 l-17 71 44 84 c46 86
198 308 295 429 65 81 95 135 82 148 -31 31 -309 -215 -435 -386 -66 -89 -80
-90 -91 -4 -4 29 -16 73 -26 98 -25 65 -124 243 -174 314 -23 33 -80 128 -125
210 -92 165 -162 279 -180 290 -6 4 -20 -1 -31 -11 -25 -23 -30 -17 -72 81
-80 188 -128 257 -113 164z m2211 -1511 c-18 -59 -23 -129 -13 -208 10 -83 9
-87 -21 -165 -20 -52 -53 -110 -96 -165 -39 -52 -65 -95 -65 -110 0 -18 -18
-43 -55 -80 -82 -81 -199 -284 -245 -425 -12 -38 -29 -83 -38 -100 -25 -50
-166 -215 -175 -206 -5 5 -2 55 7 117 8 60 17 174 20 254 6 172 27 261 113
475 55 139 266 591 283 609 14 14 85 23 194 25 98 1 98 1 91 -21z m-541 -130
c-3 -13 -20 -59 -36 -103 -16 -44 -42 -117 -58 -161 -57 -158 -242 -856 -304
-1150 -28 -134 -46 -330 -39 -415 5 -56 -11 -110 -27 -93 -4 5 -20 92 -35 194
-32 217 -31 246 20 461 24 101 37 184 39 243 3 110 41 408 61 490 9 32 31 88
50 125 36 68 237 354 283 404 32 34 56 36 46 5z m740 -154 c9 -3 16 -10 16
-15 0 -5 -44 -60 -97 -122 -54 -63 -129 -155 -168 -205 -38 -50 -76 -93 -82
-96 -27 -11 -11 26 26 64 26 27 54 76 85 148 79 184 85 195 136 214 51 19 62
21 84 12z m-6509 -86 c4 -29 5 -78 3 -108 -3 -51 -4 -53 -16 -32 -15 26 -28
152 -19 176 12 31 26 15 32 -36z m323 -824 c15 -25 62 -101 104 -169 66 -106
80 -136 93 -202 28 -145 65 -417 57 -425 -4 -4 -42 27 -84 70 l-76 77 -26 130
c-15 72 -36 184 -46 250 -11 66 -31 158 -45 204 -14 47 -25 90 -25 98 0 26 21
12 48 -33z m4572 -175 c0 -11 -4 -17 -10 -14 -5 3 -10 13 -10 21 0 8 5 14 10
14 6 0 10 -9 10 -21z m-3041 -51 c7 -35 23 -96 37 -136 13 -40 24 -80 24 -90
-1 -28 -184 -474 -195 -474 -5 1 -15 22 -22 49 -32 123 8 505 65 618 58 115
73 121 91 33z m-2479 22 c9 -16 8 -22 -5 -26 -15 -6 -55 21 -55 38 0 17 50 7
60 -12z m-64 -192 c151 -157 308 -408 255 -408 -5 0 -60 34 -122 75 l-113 75
-23 91 c-12 50 -36 121 -53 156 -50 108 -40 110 56 11z m584 -143 c166 -139
172 -156 32 -82 -102 53 -182 124 -182 161 0 14 6 26 13 26 6 0 68 -47 137
-105z m1765 18 c-11 -89 -26 -108 -45 -57 -8 20 -6 36 9 70 29 64 45 58 36
-13z m350 -156 c54 -160 53 -229 -5 -541 -24 -131 -49 -244 -56 -250 -15 -16
-118 -40 -137 -33 -10 4 -16 33 -21 114 -4 59 -16 152 -26 205 l-19 97 26 83
c29 95 114 328 149 407 32 70 41 61 89 -82z m-1148 -222 c47 -102 100 -276
136 -445 34 -158 39 -190 29 -190 -4 0 -47 57 -94 128 l-87 127 -11 140 c-12
142 -25 261 -36 325 -5 31 -4 33 8 20 8 -8 33 -55 55 -105z m690 1 l22 -44
-73 -298 c-77 -309 -83 -324 -133 -324 -30 0 -29 15 3 115 14 44 32 132 40
195 7 63 18 150 24 192 10 84 60 208 82 208 8 0 24 -20 35 -44z m1950 -28 c-3
-13 -13 -63 -22 -113 -9 -49 -18 -100 -21 -111 -4 -24 -51 -41 -67 -25 -11 11
11 85 61 194 33 73 61 104 49 55z m-3961 -184 c90 -126 255 -397 246 -406 -5
-5 -47 10 -95 32 -83 39 -87 42 -97 83 -18 69 -61 197 -92 271 -15 38 -28 73
-28 77 0 23 23 3 66 -57z m7667 -76 c7 -23 1 -38 -14 -38 -5 0 -9 14 -9 30 0
35 15 40 23 8z m-5566 -27 c-6 -48 -109 -263 -114 -239 -5 21 97 278 110 278
5 0 7 -17 4 -39z m-1576 -73 c31 -43 69 -111 69 -124 0 -9 -93 114 -109 144
-21 39 7 25 40 -20z m1642 -199 c2 -24 -3 -34 -15 -37 -14 -3 -18 3 -18 26 0
69 30 78 33 11z m-1479 -73 c25 -41 66 -96 89 -123 80 -88 107 -133 107 -174
0 -28 -5 -41 -19 -49 -17 -8 -31 0 -89 50 l-69 60 -36 148 c-49 197 -50 195
17 88z m-440 -183 c105 -94 127 -119 136 -154 12 -43 40 -196 40 -216 0 -13
-123 -83 -145 -83 -8 0 -23 17 -34 38 -40 79 -158 512 -143 527 10 9 16 4 146
-112z"/>
<path d="M2531 8813 c-1 -17 84 -468 169 -888 70 -346 90 -460 110 -625 23
-185 44 -280 86 -394 24 -65 47 -134 50 -153 15 -82 12 -6 -11 293 -26 331
-40 441 -75 590 -12 49 -36 166 -55 259 -44 223 -125 540 -177 690 -42 124
-96 249 -97 228z"/>
<path d="M8453 6987 c-24 -25 -57 -87 -50 -93 2 -3 21 20 42 51 40 57 44 82 8
42z"/>
<path d="M5237 6686 c-7 -81 -8 -399 -2 -381 10 25 24 403 17 430 -7 25 -10
16 -15 -49z"/>
<path d="M5115 6677 c-21 -16 -17 -51 12 -114 l18 -38 3 74 c3 81 -4 98 -33
78z"/>
<path d="M2961 6654 c0 -11 3 -14 6 -6 3 7 2 16 -1 19 -3 4 -6 -2 -5 -13z"/>
<path d="M2972 6580 c0 -14 2 -19 5 -12 2 6 2 18 0 25 -3 6 -5 1 -5 -13z"/>
<path d="M2986 6440 c3 -63 11 -119 16 -125 12 -12 3 149 -12 205 -6 24 -7 -1
-4 -80z"/>
</g>
</svg>
